<svg xmlns="http://www.w3.org/2000/svg" viewBox="0 0 1100 430" role="img" aria-label="从赌博变成工程">
  <defs>
    <linearGradient id="paper" x1="0%" y1="0%" x2="100%" y2="100%">
      <stop offset="0%" stop-color="#fff8ed" />
      <stop offset="58%" stop-color="#f1dfc7" />
      <stop offset="100%" stop-color="#d89a63" />
    </linearGradient>
    <filter id="softShadow" x="-20%" y="-30%" width="140%" height="170%">
      <feDropShadow dx="0" dy="14" stdDeviation="12" flood-color="#7b4a25" flood-opacity="0.18"/>
    </filter>
  </defs>
  <rect width="1100" height="430" rx="34" fill="url(#paper)" />
  <circle cx="1020" cy="50" r="150" fill="rgba(178,76,42,0.12)" />
  <circle cx="100" cy="375" r="190" fill="rgba(31,36,48,0.08)" />
  <text x="70" y="78" fill="#b24c2a" font-size="19" font-weight="800" letter-spacing="4">ARTICLE ANALOGY</text>
  <text x="70" y="122" fill="#1f2430" font-size="38" font-weight="800">从赌博变成工程</text>
  <text x="70" y="350" fill="rgba(31,36,48,0.72)" font-size="22">Scaling Law 让人可以用小模型实验，在 log-log 图上外推大模型表现。</text>
  
  <path d="M 314 246.0 C 336 208, 328 284, 342 246.0" fill="none" stroke="#d08a4e" stroke-width="4" stroke-linecap="round" />
  <path d="M 342 246.0 l -11 -7 v14 z" fill="#d08a4e" />
  <path d="M 580 246.0 C 602 208, 594 284, 608 246.0" fill="none" stroke="#d08a4e" stroke-width="4" stroke-linecap="round" />
  <path d="M 608 246.0 l -11 -7 v14 z" fill="#d08a4e" />
  <path d="M 846 246.0 C 868 208, 860 284, 874 246.0" fill="none" stroke="#d08a4e" stroke-width="4" stroke-linecap="round" />
  <path d="M 874 246.0 l -11 -7 v14 z" fill="#d08a4e" />
  
  <g filter="url(#softShadow)">
    <rect x="74" y="182" width="230" height="128" rx="28" fill="#fff8ed" stroke="rgba(178,76,42,0.24)" />
    <circle cx="118" cy="224" r="22" fill="#b24c2a" opacity="0.92" />
    <text x="118" y="232" text-anchor="middle" fill="#fff8ed" font-size="20" font-weight="800">1</text>
    <text x="189.0" y="266" text-anchor="middle" fill="#1f2430" font-size="25" font-weight="800">训小模型</text>
  </g>
  <g filter="url(#softShadow)">
    <rect x="340" y="182" width="230" height="128" rx="28" fill="#fff8ed" stroke="rgba(178,76,42,0.24)" />
    <circle cx="384" cy="224" r="22" fill="#b24c2a" opacity="0.92" />
    <text x="384" y="232" text-anchor="middle" fill="#fff8ed" font-size="20" font-weight="800">2</text>
    <text x="455.0" y="266" text-anchor="middle" fill="#1f2430" font-size="25" font-weight="800">测 Loss</text>
  </g>
  <g filter="url(#softShadow)">
    <rect x="606" y="182" width="230" height="128" rx="28" fill="#fff8ed" stroke="rgba(178,76,42,0.24)" />
    <circle cx="650" cy="224" r="22" fill="#b24c2a" opacity="0.92" />
    <text x="650" y="232" text-anchor="middle" fill="#fff8ed" font-size="20" font-weight="800">3</text>
    <text x="721.0" y="266" text-anchor="middle" fill="#1f2430" font-size="25" font-weight="800">画直线</text>
  </g>
  <g filter="url(#softShadow)">
    <rect x="872" y="182" width="230" height="128" rx="28" fill="#fff8ed" stroke="rgba(178,76,42,0.24)" />
    <circle cx="916" cy="224" r="22" fill="#b24c2a" opacity="0.92" />
    <text x="916" y="232" text-anchor="middle" fill="#fff8ed" font-size="20" font-weight="800">4</text>
    <text x="987.0" y="266" text-anchor="middle" fill="#1f2430" font-size="25" font-weight="800">外推大模型</text>
  </g>
</svg>
